<?xml version="1.0" encoding="utf-8"?>
<!-- Generator: Adobe Illustrator 16.0.0, SVG Export Plug-In . SVG Version: 6.00 Build 0)  -->
<!DOCTYPE svg PUBLIC "-//W3C//DTD SVG 1.1//EN" "http://www.w3.org/Graphics/SVG/1.1/DTD/svg11.dtd">
<svg version="1.1" id="molde_polo_verso" xmlns="http://www.w3.org/2000/svg" xmlns:xlink="http://www.w3.org/1999/xlink" x="0px" y="0px"
	 width="371.92px" height="480px" viewBox="0 0 371.92 480" enable-background="new 0 0 371.92 480" xml:space="preserve">
	<path d="M135.675,6.17c0,0-4.578,2.886-12.134,16.632c0,0-3.313,5.011-6.606,7.879c0,0-46.134,15.031-70.105,24.511
	c0,0-10.964,5.122-20.659,23.449c-9.695,18.327-15.02,29.41-18.33,57.536c0,0-5.212,35.276-5.75,44.755l-1.285,14.286
	c0,0-1.378,2.98,3.202,6.183c4.578,3.202,11.93,10.337,41.554,10.861c0,0,23.003,1.079,23.637-11.083l0.65-13
	c0,0,0.095-1.426,0.206-1.489c0.11-0.05,0.855-1.063,0.855-1.063s8.523,39.716,11.723,59.04c3.186,19.327,2.758,16.522,2.553,28.349
	c-0.207,11.83-0.207,26.004-0.207,26.004s-2.772,39.43-2.138,47.734c0.633,8.309,1.917,16.842,1.917,16.842
	s-2.979,13.109-3.2,17.693c0,0-6.607,11.92-6.813,19.172c-0.206,7.24-0.428,11.727,1.489,18.322l-2.55,17.063
	c0,0-2.14,5.754,1.267,10.018c3.422,4.266,8.634,15.018,29.404,23.658c0,0,22.909,9.797,76.283,10.449
	c53.372,0.631,80.32-8.754,80.32-8.754s32.382-9.16,37.071-32.168c0,0,0.432-4.344-0.647-6.832
	c-1.062-2.475-2.547-15.758-2.547-15.758s4.463-11.512-4.267-32.186l-0.428-2.564c0,0-0.712-10.797-3.201-16.408
	c0,0,4.401-12.309,0.43-48.374l-1.487-22.386l-0.208-24.924l0.633-15.995c0,0,2.565-15.267,3.629-20.88
	c1.063-5.611,10.219-48.165,10.219-48.165l1.08,2.774l0.412,2.981l0.428,11.081c0,0,0,5.755,7.89,8.101
	c7.875,2.346,12.783,2.665,32.589,0.635c19.818-2.029,28.342-12.795,28.342-12.795s1.174-2.552-0.43-6.167l-2.55-26.223
	l-7.667-47.309c0,0-4.059-25.89-23.655-51.575c0,0-3.835-6.61-16.192-12.572c-12.358-5.977-54.012-18.865-70.106-24.733
	l-4.257-6.389c0,0-4.786-16.409-15.972-20.881c0,0-40.478-3.52-87.781,0.206C142.283,1.699,139.511,2.333,135.675,6.17z"/>
</svg>