<?xml version="1.0" encoding="utf-8"?>
<!-- Generator: Adobe Illustrator 16.0.0, SVG Export Plug-In . SVG Version: 6.00 Build 0)  -->
<!DOCTYPE svg PUBLIC "-//W3C//DTD SVG 1.1//EN" "http://www.w3.org/Graphics/SVG/1.1/DTD/svg11.dtd">
<svg version="1.1" class="detalhes_polo" xmlns="http://www.w3.org/2000/svg" xmlns:xlink="http://www.w3.org/1999/xlink" x="0px" y="0px" 
width="371.92px" height="480px" viewBox="0 0 371.92 480" enable-background="new 0 0 371.92 480" xml:space="preserve">
	<g class="manga">
		<path d="M56.9,147.7c-3.2-9.5-6.8-21.3-9.1-34.5c-2.4-13.2-3.3-27.8-3.5-38c-0.2-9.1,0.3-14.5,1-19.5
		c-2.8,1.6-11.7,7.7-19.8,23c-9.7,18.3-15,29.4-18.3,57.5c0,0-5.2,35.3-5.8,44.8l-1.3,14.3c0,0-1.4,3,3.2,6.2
		c4.6,3.2,11.9,10.3,41.6,10.9c0,0,23,1.1,23.6-11.1l0.7-13c0,0,0.1-1.4,0.2-1.5c0.1-0.1,0.9-1.1,0.9-1.1c-1.3-4.9-3.2-9.1-5.2-15.2
		C63.1,164.4,60.1,157.3,56.9,147.7z"/>
		<path d="M302,190.3l0.4,11.1c0,0,0,5.8,7.9,8.1c7.9,2.3,12.8,2.7,32.6,0.6c19.8-2,28.3-12.8,28.3-12.8
		s1.2-2.6-0.4-6.2l-2.5-26.2l-7.7-47.3c0,0-4.1-25.9-23.7-51.6c0,0-3.8-6.6-16.2-12.6c-0.6-0.3-1.2-0.6-1.9-0.9c0,0,0,0,0,0
		c0.5,3.2,1,6.7,1.3,10.8c1,8.9,1.6,20.2,1.9,32.8c0.3,12.6,0.5,26.2-1.6,36.6c-2.1,10.3-5.7,17.2-9.4,25.6
		c-3.5,8.1-7.2,16.6-10.4,26.2l0,0.5l0.9,2.3L301,190.3z"/>
	</g>
	<g class="friso" id="friso1">
		<path d="M7.6,191.3c6.6,3.1,14.2,5.3,26.7,6.8c12.5,1.6,26.9-1.5,26.9-1.5s5.4-0.9,7.6-5.1l0.2-3.3
		c-2.1,4.5-7.8,5.5-7.8,5.5s-14.5,3.1-26.9,1.5c-12.5-1.6-20.1-3.7-26.7-6.8c-3.5-1.6-5.4-3.5-6.4-4.8L1,186.1
		C2,187.5,3.8,189.5,7.6,191.3z"/>
		<path d="M308.8,196.2c7,2.1,15.5,2.2,23.3,1.9c7.8-0.3,23.1-3.6,25.2-4.9c0,0,9.5-2.8,13-8.1
		l-0.3-2.6c-3.6,5.1-12.7,7.8-12.7,7.8c-2.1,1.4-17.5,4.6-25.2,4.9c-7.8,0.3-16.3,0.1-23.3-1.9c-3.6-1.1-5.6-2.7-6.8-4.1l0,1l0,0.2
		l0.1,1.9C302.3,193.6,304.3,195.2,307.8,196.2z"/>
	</g>
	<g class="punho">
		<path d="M370.3,184.9c-3.4,5.4-13.1,8.3-13.1,8.3c-2.1,1.4-17.5,4.6-25.2,4.9c-7.8,0.3-16.3,0.1-23.3-1.9
		c-3.6-1.1-5.6-2.7-6.8-4.1l0.4,9.4c0,0,0,5.8,7.9,8.1c7.9,2.4,12.8,2.7,32.7,0.6c19.9-2,28.4-12.8,28.4-12.8s1.2-2.6-0.4-6.2
		L369.3,184.9z"/>
		<path d="M69.1,191.2c-2.1,4.5-7.8,5.5-7.8,5.5s-14.5,3.1-26.9,1.5c-12.5-1.6-20.1-3.7-26.7-6.8c-4.2-2-6-4.1-6.9-5.5
		l-0.8,9.3c0,0-1.4,3,3.2,6.2s12,10.4,41.7,10.9c0,0,23.1,1.1,23.7-11.1L69.1,191.2z"/>
	</g>
	<g class="golas_verso">
		<path class="gola" d="M135.8,6.2c0,0-4.6,2.9-12.2,16.7c0,0-3,4.5-6.1,7.4l2.3-0.8c0,0,1.3-1.7,6.4-2.8c5.1-1.1,23.9-1.7,23.9-1.7
		l28.4-1.1l33.6,0.2l18.6,0.7c0,0,13.8-0.4,17.3,2.6l1.5,1.1l1.2,0.4l-4.2-6.3c0,0-4.8-16.5-16-20.9c0,0-40.6-3.5-88.1,0.2
		C141.5,1.7,138.7,2.4,134.8,6.2z"/>
	</g>
</svg>