<?xml version="1.0" encoding="utf-8"?>
<!-- Generator: Adobe Illustrator 16.0.0, SVG Export Plug-In . SVG Version: 6.00 Build 0)  -->
<!DOCTYPE svg PUBLIC "-//W3C//DTD SVG 1.1//EN" "http://www.w3.org/Graphics/SVG/1.1/DTD/svg11.dtd">
<svg version="1.1" class="detalhes_polo" xmlns="http://www.w3.org/2000/svg" xmlns:xlink="http://www.w3.org/1999/xlink" x="0px" y="0px" 
	width="371.92px" height="480px" viewBox="0 0 371.92 480" enable-background="new 0 0 371.92 480" xml:space="preserve">
	<g class="vies">
		<path d="M90.5,191.7c-10.4-40.3-25.4-48.5-28.8-49.9c0.1,0.8,0.2,1.7,0.4,2.5c4.5,2.5,17.5,12.7,26.5,48.6
		c10.1,39.9,17.2,120.6-5.6,278.6c0.6,0.2,1.3,0.4,2,0.6C108,312.8,100.7,231.8,90.5,191.7z"/>
		<path d="M284.8,198.9c7.3-31.8,17.1-46.1,22.6-51.9c0.2-1.2,0.3-2.3,0.4-3.4c-5.1,4.6-16.4,18.3-24.8,54.2
		c-9.7,41.9-16.8,123.5,3.9,274.9c0.7-0.2,1.3-0.4,2-0.7C268.3,321.8,275.3,240.7,284.8,198.9z"/>
	</g>
	<g class="manga">
		<path d="M39.1,66.6L39.1,66.6c-7.4,7.2-24.6,28.4-31.9,74.6l-6.8,57.1c0,0-1.5,2.4,1.5,4.4
		c3.1,2,35.2,15.6,56.8,12.2c0,0,9.3,0,9.4-5L69,194c0,0,3.8-5.6,1.3-19.2c0,0-1.5-6.1-1.1-8.2c-5.5-15.2-17.7-55.2-21.5-66.7
		C43.8,87.1,41,75.9,39.1,66.6z"/>
		<path d="M302.7,168c0.1,0.1-3.1,12.8-2.4,19.4c0,0,1,5.7,2.4,7l0.7,15c0,0-0.5,5.6,9.4,6.1c0,0,11.6,1.5,32.6-3.3
		c0,0,14.2-4,25.3-9.4c0,0,1.8-0.6,0.9-3.9c-1-3.3-2.2-16.6-2.2-16.6s-5.7-53-9.4-65.6c-3.7-12.6-14.9-40-26.4-49.3
		c0,0-0.5-1-2.9-2.9c-0.6,11.1-4.3,23.5-4.3,23.5L312.4,137c-8.1,19-10,28.7-10.5,30.8c0.1,0.1,0.1,0.2,0.2,0.2l0.2-0.7
		C302.3,167.4,302.6,168,302.7,168z"/>
	</g>
	<g class="manga_raglan">
		<path d="M300.5,187.5c0,0,1,5.7,2.4,7l0.6,15.1c0,0-0.5,5.6,9.4,6c0,0,11.6,1.6,32.6-3.3c0,0,14.2-4,25.3-9.4
		c0,0,1.9-0.6,1-4s-2.2-16.5-2.2-16.5s-5.7-52.9-9.4-65.7s-14.8-40.1-26.4-49.3c0,0-2.9-5.4-24-13.5s-56-19.9-56-19.9l-6.4-5.9
		c0,0-8.9-21.5-22.7-24.6c0,0-39-7.8-71.1-0.6c0,0-18.9,0.3-25.1,18.3c0,0-4.3,11.9-10.5,12.7c-6.2,0.6-72.3,25.1-75.4,29.7
		c0,0-25.9,18-35.5,77.6l-6.8,57.1c0,0-1.6,2.4,1.6,4.5c3,1.9,35.1,15.6,56.8,12.2c0,0,9.2,0,9.4-5.1l0.8-15.9c0,0,3.8-5.6,1.3-19.2
		c0,0-1.6-6.4-1.1-8.3c0,0-26.3-50.6,16.5-81.9c0,0,25.1-19.9,56.8-20l88.1-0.2c0,0,50.6,4.3,71.1,45.5c0,0,14,13.5,1.3,58.2
		C303,168.2,299.8,180.9,300.5,187.5z"/>
	</g>
	<g class="friso">
		<path d="M59.5,198.9c0,0-19.1,1.1-37.6-5.2c-12-4.1-17.6-7.6-20.1-9.5l-1.4,11.3c0,0-0.7,1.1-0.2,2.4l1.3-10.7
		c2.5,1.9,8,5.4,20.1,9.5c18.5,6.3,37.6,5.2,37.6,5.2s7.4-0.3,9.4-3.4l-0.5,9.4c0.1-0.3,0.2-0.6,0.2-1l0.6-11.4
		C67,198.6,59.5,198.9,59.5,198.9z"/>
		<path d="M303.3,207.8l-0.4-9c1,1.2,3.2,2.9,7.9,3.3c7.8,0.7,17-0.1,31.9-3.1c0,0,13.8-2.4,27.2-11
		c0.4,3.8,1,8.6,1.5,10.7c0.2-0.6,0.2-1.4-0.2-2.7c-0.6-1.9-1.2-7-1.6-11c-13.5,8.6-27.2,11-27.2,11c-14.9,2.9-24.1,3.8-31.9,3.1
		c-4.7-0.4-6.9-2.1-7.9-3.3l0.5,10.7C303.1,206.6,303.1,207.1,303.3,207.8z"/>
	</g>
	<g class="punho">
		<path d="M302.974,198.872l0.459,10.703c0,0-0.477,5.615,9.402,6.11c0,0,11.596,1.524,32.576-3.278c0,0,14.201-4.041,25.352-9.386
		c0,0,1.844-0.587,0.877-3.911c-0.572-1.895-1.193-6.999-1.641-11.041c-13.455,8.639-27.215,11.041-27.215,11.041
		c-14.871,2.942-24.096,3.752-31.908,3.054C306.216,201.734,304.005,200.11,302.974,198.872z"/>
		<path d="M1.652,187.166l-1.353,11.277c0,0-1.526,2.404,1.544,4.374c3.054,1.955,35.182,15.587,56.816,12.217
		c0,0,9.289,0,9.399-5.026l0.621-11.421c-1.957,3.054-9.369,3.356-9.369,3.356s-19.118,1.08-37.586-5.233
		C9.686,192.588,4.103,189.09,1.652,187.166z"/>
	</g>
	<g class="golas">
		<path class="fundo_gola" d="M137.434,18.933v58.025l28.32-1.75c0,0,22.572,21.225,23.556,21.225l49.471-36.365V19.331L137.434,18.933z"/>
		<path class="gola" d="M264.099,94.609c0,0-0.221-37.062-10.688-60.616l-6.141-5.695c0,0-8.846-21.489-22.729-24.654
		c0,0-38.906-7.747-71.02-0.651c0,0-18.912,0.333-25.147,18.323c0,0-3.26,8.955-8.081,11.818c-1.59,5.025-3.419,13.153-3.722,24.4
		c-0.54,20.391,2.195,35.772,2.195,35.772l0.43,0.651l8.526-4.58c0,0,21.856-10.91,34.31-13.09l2.623-0.429l1.097-0.652
		c0,0-2.736-3.499-2.848-3.721c-0.095-0.207-3.483-2.609-3.483-2.609s-6.998-6.044-12.819-16.541
		c-3.563-6.442-6.553-19.087-5.965-21.377l0.302-3.277l27.66-1.782l30.377-0.222l32.783,1.971c0,0,2.689,8.716-2.846,25.083
		c0,0-3.42,9.083-6.557,12.646c-3.133,3.563-3.941,4.74-4.818,9.83v7.633c0,0,24.988,4.136,45.906,12.422L264.099,94.609z"/>
		<path class="gola_2" d="M224.983,31.782c0,0,4.695,0.064,7.367,0.047c-0.16-2.767-0.59-4.182-0.59-4.182l-32.783-1.971l-30.377,0.222
		l-28.423,1.75l-0.207,2.402c-0.096,0.397-0.127,0.906-0.112,1.495l32.45-0.416C172.308,31.128,216.89,30.971,224.983,31.782z"/>
		<path class="gola_3" d="M159.853,69.304l4.151,6.33c4.739,7.125,5.472,23.048,10.052,29.521c2.004,2.815,1.035,8.034,1.098,8.145
		c0.047,0.112,0,19.707,0,19.707v29.49c0.381-8.557,0.874-20.216,0.874-23.382c0-5.168,0.875-22.681,0.875-22.681
		c0.731-4.471,2.465-9.354,3.706-12.87c0.844-2.386,5.947-6.966,9.18-9.718l-0.211,0.111l-0.441-0.874
		c0,0-7.206-9.895-10.704-12.868c-3.5-2.975-5.663-3.594-8.956-4.803c-3.309-1.192-5.901-3.929-5.901-3.929L159.853,69.304z
		M192.489,91.57l-0.777,0.684l0.777-0.621V91.57z"/>
		<path class="gola_4" d="M175.155,162.496v13.918c0.063,3.197,1.097,2.623,1.097,2.623h18.133c1.461-0.223,1.525-1.305,1.525-1.305
		s0.143-33.894,0.445-59.344c0.287-25.451,5.455-28.79,5.455-28.79c8.303-2.353,14.648-2.402,14.648-2.402l0.227-0.445l0.857-4.135
		v-8.081c0.127-4.087,5.043-9.591,5.043-9.591l-1.324,0.875l-2.176,2.608l-2.4,2.625l-0.879,0.651
		c-1.35,0.605-1.748,1.527-1.748,1.527l-0.879,1.303c-2.385,0.987-4.371,3.499-4.371,3.499l-3.277,2.402
		c-4.533,3.771-9.959,8.446-13.043,11.135v0.063l-0.777,0.62l-1.701,1.479l-0.225,0.112c-3.229,2.752-8.333,7.332-9.177,9.718
		c-1.241,3.515-2.975,8.399-3.706,12.87c0,0-0.875,17.513-0.875,22.681C176.027,142.28,175.534,153.938,175.155,162.496z"/>
	</g>
	<g class="botao">
		<path d="M169.903,80.214c0,0-2.003,1.78-1.303,3.276c0.684,1.48,1.448,2.72,3.707,3.708
		c2.257,0.985,3.07,0.223,3.07,0.223l1.305-1.75c0,0,0.62-1.161-0.431-2.402C175.188,82.027,173.038,79.165,169.903,80.214z"/>
		<path d="M186.081,105.298c0,0-3.102,2.656-1.32,5.678c1.796,3.022,4.373,2.609,4.373,2.609
		s1.893-0.541,2.404-1.306c0,0,3.068-2.147,0-6.331C191.536,105.95,189.722,103.518,186.081,105.298z"/>
		<path d="M184.553,138.019c0,0-4.199,3.1-1.526,6.981c0,0,2.179,2.18,5.454,1.32c0,0,3.469-1.431,2.18-5.899
		C190.661,140.418,189.644,136.602,184.553,138.019z"/>
	</g>
</svg>




