<?xml version="1.0" encoding="utf-8"?>
<!-- Generator: Adobe Illustrator 16.0.0, SVG Export Plug-In . SVG Version: 6.00 Build 0)  -->
<!DOCTYPE svg PUBLIC "-//W3C//DTD SVG 1.1//EN" "http://www.w3.org/Graphics/SVG/1.1/DTD/svg11.dtd">
<svg version="1.1" id="molde_polo" xmlns="http://www.w3.org/2000/svg" xmlns:xlink="http://www.w3.org/1999/xlink" x="0px" y="0px"
	 width="371.92px" height="480px" viewBox="0 0 371.92 480" enable-background="new 0 0 371.92 480" xml:space="preserve">		
	<path d="M153.575,2.991c0,0-18.903,0.334-25.136,18.315c0,0-4.355,11.988-10.477,12.655c-6.121,0.652-72.307,25.072-75.375,29.652
	c0,0-25.883,17.981-35.39,77.617l-6.773,57.124c0,0-1.526,2.4,1.542,4.373c3.052,1.955,35.167,15.58,56.79,12.209
	c0,0,9.285,0,9.396-5.023l0.875-15.915c0,0,3.815-5.564,1.303-19.189c0,0-1.526-6.312-1.082-8.283l1.526,5.023
	c0,0,3.609,22.226,4.58,34.437l2.846,20.938c0,0,3.497,35.866,3.927,57.997c0.445,22.131-0.207,39.476-0.207,39.476v15.04
	c0,0-0.875,7.408,1.749,21.367l-0.875,18.316c0,0-6.058,29.367-6.343,37.076c0,0-0.652,7.629-1.097,10.234
	c-0.43,2.625-4.15,28.348-4.15,28.348s-3.926,9.382,2.624,12.654c6.55,3.26,18.792,10.461,76.901,11.988
	c58.109,1.525,94.375-0.443,94.375-0.443s43.689-1.191,56.358-13.943c0,0,1.306-1.319,0.433-5.454
	c-0.877-4.147-5.024-31.62-5.024-31.62l-1.527-12.643l-6.12-35.104l-1.305-20.938l2.624-101.181c0,0,1.638-20.602,4.372-39.457
	c2.719-18.856,5.677-45.137,5.677-45.137l1.748-6.104c0,0,0.315,0.604,0.429,0.652c0.111,0.064-3.053,12.751-2.399,19.412
	c0,0,0.985,5.66,2.399,6.979l0.651,15.041c0,0-0.478,5.612,9.396,6.104c0,0,11.59,1.526,32.563-3.275c0,0,14.196-4.039,25.34-9.38
	c0,0,1.846-0.588,0.875-3.911c-0.984-3.339-2.195-16.583-2.195-16.583s-5.674-52.974-9.395-65.629
	c-3.704-12.64-14.852-40.017-26.422-49.27c0,0-2.848-5.454-24.04-13.529c-21.192-8.061-55.916-19.841-55.916-19.841l-6.345-5.883
	c0,0-8.838-21.479-22.717-24.643C224.563,3.643,185.674-4.1,153.575,2.991z"/>
</svg>